<?xml version="1.0" standalone="no"?><!DOCTYPE svg PUBLIC "-//W3C//DTD SVG 1.1//EN" "http://www.w3.org/Graphics/SVG/1.1/DTD/svg11.dtd"><svg class="icon" width="48px" height="48.00px" viewBox="0 0 1024 1024" version="1.1" xmlns="http://www.w3.org/2000/svg"><path d="M662.4 199.2c-6.7 0-12.6-2.4-17.7-7.1-5.1-4.7-9.3-10.4-12.6-17.2-3.4-6.7-5.9-13.6-7.6-20.7-1.7-7.1-2.5-13-2.5-17.7L622 11.2l2 0c5.4 0 10.9 0.8 16.7 2.5 5.7 1.7 12.5 4.9 20.2 9.6 7.7 4.7 17.2 11.6 28.3 20.7 11.1 9.1 25.1 21.1 41.9 35.9 18.2 16.2 32.5 30 43 41.4 10.4 11.5 18.5 21.1 24.3 28.8s9.3 14.3 10.6 19.7c1.3 5.4 2 10.1 2 14.2l0 15.2L662.4 199.2 662.4 199.2zM491.6 770.3c-0.7 4.7-1 9.4-1 14.2l0 15.2c0 30.3 4.4 59 13.1 85.9 8.8 27 20.9 52.2 36.4 75.8l-357.8 0c-12.8 0-26.8-3.7-41.9-11.1-15.2-7.4-29.3-17.2-42.5-29.3-13.1-12.1-24.1-25.9-32.8-41.4-8.8-15.5-13.1-31.7-13.1-48.5L52 141.6c0-14.2 3.4-28.8 10.1-44 6.7-15.2 15.5-29.1 26.3-41.9s23.2-23.4 37.4-31.8c14.2-8.4 29-12.6 44.5-12.6l387.1 0L557.4 137.6c0 13.5 2 27.5 6.1 41.9 4 14.5 10.4 28.1 19.2 40.9 8.8 12.8 19.9 23.2 33.4 31.3 13.5 8.1 29.3 12.1 47.5 12.1L811 263.8l0 251.7c-5.4-1.3-11.1-2-17.2-2l-18.2 0c-50.5 0-96.7 11.8-138.5 35.4-41.8 23.6-75.5 55.3-101.1 95l-294.1 0c-17.5 0-32.5 6.1-45 18.2-12.5 12.1-18.7 27-18.7 44.5 0 17.5 6.2 32.5 18.7 45 12.5 12.5 27.5 18.7 45 18.7L491.6 770.3 491.6 770.3zM241.9 390.3c-17.5 0-32.5 6.2-45 18.7-12.5 12.5-18.7 27.5-18.7 45 0 17.5 6.2 32.3 18.7 44.5 12.5 12.1 27.5 18.2 45 18.2l379 0c17.5 0 32.3-6.1 44.5-18.2 12.1-12.1 18.2-27 18.2-44.5s-6.1-32.5-18.2-45c-12.1-12.5-27-18.7-44.5-18.7L241.9 390.3 241.9 390.3zM779.6 578.3c31 0 60 5.7 86.9 17.2 27 11.5 50.5 27.3 70.8 47.5s36 43.8 47.5 70.8c11.5 27 17.2 55.9 17.2 86.9s-5.7 60-17.2 86.9c-11.5 27-27.3 50.5-47.5 70.8s-43.8 36-70.8 47.5c-27 11.5-55.9 17.2-86.9 17.2-30.3 0-59-5.7-85.9-17.2-27-11.5-50.5-27.3-70.8-47.5s-36.2-43.8-48-70.8-17.7-55.9-17.7-86.9c0-31 5.9-60 17.7-86.9s27.8-50.5 48-70.8 43.8-36 70.8-47.5C720.7 584 749.3 578.3 779.6 578.3L779.6 578.3zM661.6 689.8c-10.9 0-20.3 3.9-28.1 11.7-7.8 7.8-11.7 17.2-11.7 28.1s3.9 20.2 11.7 27.8c7.8 7.6 17.2 11.4 28.1 11.4l236.8 0c10.9 0 20.2-3.8 27.8-11.4 7.6-7.6 11.4-16.8 11.4-27.8s-3.8-20.3-11.4-28.1c-7.6-7.8-16.8-11.7-27.8-11.7L661.6 689.8 661.6 689.8zM661.6 832.5c-10.9 0-20.3 3.9-28.1 11.7-7.8 7.8-11.7 17.2-11.7 28.1s3.9 20.2 11.7 27.8c7.8 7.6 17.2 11.4 28.1 11.4l236.8 0c10.9 0 20.2-3.8 27.8-11.4 7.6-7.6 11.4-16.8 11.4-27.8s-3.8-20.3-11.4-28.1c-7.6-7.8-16.8-11.7-27.8-11.7L661.6 832.5 661.6 832.5z" fill="#1296db" /></svg>