<?xml version="1.0" standalone="no"?><!DOCTYPE svg PUBLIC "-//W3C//DTD SVG 1.1//EN" "http://www.w3.org/Graphics/SVG/1.1/DTD/svg11.dtd"><svg class="icon" width="48px" height="47.95px" viewBox="0 0 1025 1024" version="1.1" xmlns="http://www.w3.org/2000/svg"><path d="M230.532988 436.672069h341.200039v68.279996H230.532988zM230.133106 633.314459h213.237528v68.279996H230.133106zM230.133106 240.929415h341.200039v68.279996H230.133106zM767.775593 580.329981c103.469687 0 187.645026 84.175339 187.645026 187.645026S871.24528 955.720004 767.775593 955.720004s-187.645026-84.175339-187.645026-187.645026 84.175339-187.744997 187.645026-187.744997m0-68.279996c-141.358586 0-255.925022 114.566436-255.925022 255.925022s114.566436 255.925022 255.925022 255.925022 255.925022-114.566436 255.925022-255.925022-114.566436-255.925022-255.925022-255.925022z" fill="#d81e06" /><path d="M68.280523 85.574929v853.050083c0 9.397247 7.597774 17.094992 17.094992 17.094992h682.500049v68.279996H68.280523c-37.688958 0-68.279996-30.591038-68.279996-68.279996V68.479938C0.000527 30.790979 30.591565 0.199941 68.280523 0.199941h665.405057c37.688958 0 68.279996 30.591038 68.279996 68.279997v480.45924h-68.279996V85.574929c0-9.397247-7.597774-17.094992-17.094991-17.094991H85.375515c-9.497218 0-17.094992 7.597774-17.094992 17.094991z" fill="#d81e06" /><path d="M661.206814 734.284877h213.237528v68.279997H661.206814z" fill="#d81e06" /><path d="M801.967576 661.859096v213.237528h-68.279996v-213.237528z" fill="#d81e06" /></svg>