<?xml version="1.0" standalone="no"?><!DOCTYPE svg PUBLIC "-//W3C//DTD SVG 1.1//EN" "http://www.w3.org/Graphics/SVG/1.1/DTD/svg11.dtd"><svg class="icon" width="48px" height="48.00px" viewBox="0 0 1024 1024" version="1.1" xmlns="http://www.w3.org/2000/svg"><path d="M78.336 80.896c-20.48 0-40.96 8.192-55.296 23.04S0 138.24 0 158.72c0 20.48 8.192 40.96 23.04 55.296 14.336 14.336 34.816 23.04 55.296 23.04 20.48 0 40.96-8.192 55.296-23.04C147.968 199.68 156.672 179.2 156.672 158.72c0-20.48-8.192-40.96-23.04-55.296s-34.816-22.528-55.296-22.528zM317.952 237.568h627.712c43.52 0 78.336-35.328 78.336-78.336 0-43.52-35.328-78.336-78.336-78.336H317.952c-43.52 0-78.336 35.328-78.336 78.336-0.512 43.52 34.816 78.336 78.336 78.336zM78.336 394.752c-20.48 0-40.96 8.192-55.296 23.04C8.192 432.128 0 452.608 0 473.088s8.192 40.96 23.04 55.296c14.336 14.336 34.816 23.04 55.296 23.04 20.48 0 40.96-8.192 55.296-23.04 14.336-14.336 23.04-34.816 23.04-55.296s-8.192-40.96-23.04-55.296c-14.336-14.848-34.816-23.04-55.296-23.04zM945.664 394.752H317.952c-43.52 0-78.336 35.328-78.336 78.336-0.512 43.008 34.816 78.336 78.336 78.336h627.712c43.52 0 78.336-35.328 78.336-78.336s-35.328-78.336-78.336-78.336zM78.336 708.608c-20.48 0-40.96 8.192-55.296 23.04-14.336 14.336-23.04 34.816-23.04 55.296 0 20.48 8.192 40.96 23.04 55.296s34.816 23.04 55.296 23.04c20.48 0 40.96-8.192 55.296-23.04s23.04-34.816 23.04-55.296c0-20.48-8.192-40.96-23.04-55.296-14.336-14.848-34.816-23.04-55.296-23.04zM552.96 708.608H317.952c-43.52 0-78.336 34.816-78.336 78.336S274.944 865.28 317.952 865.28H552.96c43.52 0 78.336-34.816 78.336-78.336s-34.816-78.336-78.336-78.336zM990.208 748.032h-83.456v-83.456c0-18.432-17.408-33.28-39.424-33.28-21.504 0-39.424 14.848-39.424 33.28v83.456h-83.456c-18.432 0-33.28 17.408-33.28 39.424 0 21.504 15.36 39.424 33.28 39.424h83.456v83.456c0 18.432 17.408 33.792 39.424 33.792 21.504 0 39.424-14.848 39.424-33.792v-83.968h83.456c18.432 0 33.792-17.408 33.792-39.424 0-22.016-15.36-38.912-33.792-38.912z" fill="#d4237a" /></svg>