<?xml version="1.0" standalone="no"?><!DOCTYPE svg PUBLIC "-//W3C//DTD SVG 1.1//EN" "http://www.w3.org/Graphics/SVG/1.1/DTD/svg11.dtd"><svg class="icon" width="48px" height="48.00px" viewBox="0 0 1024 1024" version="1.1" xmlns="http://www.w3.org/2000/svg"><path d="M 320 64 H 192 c -70.4 0 -128 57.6 -128 128 v 128 c 0 70.4 57.6 128 128 128 h 128 c 70.4 0 128 -57.6 128 -128 V 192 c 0 -70.4 -57.6 -128 -128 -128 Z m 448 0 H 640 c -70.4 0 -128 57.6 -128 128 v 128 c 0 70.4 57.6 128 128 128 h 128 c 70.4 0 128 -57.6 128 -128 V 192 c 0 -70.4 -57.6 -128 -128 -128 Z M 320 512 H 192 c -70.4 0 -128 57.6 -128 128 v 128 c 0 70.4 57.6 128 128 128 h 128 c 70.4 0 128 -57.6 128 -128 V 640 c 0 -70.4 -57.6 -128 -128 -128 Z m 448 0 H 640 c -70.4 0 -128 57.6 -128 128 v 128 c 0 70.4 57.6 128 128 128 h 128 c 70.4 0 128 -57.6 128 -128 V 640 c 0 -70.4 -57.6 -128 -128 -128 Z" fill="#fc723e" /></svg>